<mxfile host="www.draw.io" modified="2020-03-06T07:56:56.024Z" agent="Mozilla/5.0 (Windows NT 10.0; Win64; x64) AppleWebKit/537.36 (KHTML, like Gecko) Chrome/80.0.3987.122 Safari/537.36" etag="HmK8xfdaLhQ61B3BMI7N" version="12.8.1" type="github">
  <diagram id="CbkJnJEh0gBc51UnrOOb" name="Page-1">
    <mxGraphModel dx="1038" dy="499" grid="1" gridSize="10" guides="1" tooltips="1" connect="1" arrows="1" fold="1" page="1" pageScale="1" pageWidth="850" pageHeight="1100" math="0" shadow="0">
      <root>
        <mxCell id="0" />
        <mxCell id="1" parent="0" />
        <mxCell id="EwqIoR-dYyj7auGb662B-1" value="" style="shape=umlLifeline;participant=umlActor;perimeter=lifelinePerimeter;whiteSpace=wrap;html=1;container=1;collapsible=0;recursiveResize=0;verticalAlign=top;spacingTop=36;labelBackgroundColor=#ffffff;outlineConnect=0;" vertex="1" parent="1">
          <mxGeometry x="20" y="40" width="20" height="300" as="geometry" />
        </mxCell>
        <mxCell id="EwqIoR-dYyj7auGb662B-2" value="start :Start" style="shape=umlLifeline;perimeter=lifelinePerimeter;whiteSpace=wrap;html=1;container=1;collapsible=0;recursiveResize=0;outlineConnect=0;" vertex="1" parent="1">
          <mxGeometry x="120" y="40" width="100" height="300" as="geometry" />
        </mxCell>
        <mxCell id="EwqIoR-dYyj7auGb662B-6" value="" style="html=1;points=[];perimeter=orthogonalPerimeter;" vertex="1" parent="EwqIoR-dYyj7auGb662B-2">
          <mxGeometry x="45" y="80" width="10" height="160" as="geometry" />
        </mxCell>
        <mxCell id="EwqIoR-dYyj7auGb662B-3" value="sHelper :SearchHelper&lt;br&gt;" style="shape=umlLifeline;perimeter=lifelinePerimeter;whiteSpace=wrap;html=1;container=1;collapsible=0;recursiveResize=0;outlineConnect=0;" vertex="1" parent="1">
          <mxGeometry x="300" y="40" width="140" height="300" as="geometry" />
        </mxCell>
        <mxCell id="EwqIoR-dYyj7auGb662B-10" value="" style="html=1;points=[];perimeter=orthogonalPerimeter;" vertex="1" parent="EwqIoR-dYyj7auGb662B-3">
          <mxGeometry x="65" y="106" width="10" height="24" as="geometry" />
        </mxCell>
        <mxCell id="EwqIoR-dYyj7auGb662B-7" value="1: loginHandler(ActionEvent e)" style="html=1;verticalAlign=bottom;startArrow=oval;endArrow=block;startSize=8;" edge="1" target="EwqIoR-dYyj7auGb662B-6" parent="1" source="EwqIoR-dYyj7auGb662B-1">
          <mxGeometry relative="1" as="geometry">
            <mxPoint x="105" y="120" as="sourcePoint" />
            <Array as="points">
              <mxPoint x="90" y="120" />
            </Array>
          </mxGeometry>
        </mxCell>
        <mxCell id="EwqIoR-dYyj7auGb662B-11" value="2: getUser(String id)" style="html=1;verticalAlign=bottom;endArrow=block;" edge="1" parent="1" target="EwqIoR-dYyj7auGb662B-3">
          <mxGeometry width="80" relative="1" as="geometry">
            <mxPoint x="170" y="147" as="sourcePoint" />
            <mxPoint x="350" y="147" as="targetPoint" />
          </mxGeometry>
        </mxCell>
        <mxCell id="EwqIoR-dYyj7auGb662B-12" value="user :User" style="html=1;points=[];perimeter=orthogonalPerimeter;shape=umlLifeline;participant=label;fontFamily=Helvetica;fontSize=12;fontColor=#000000;align=center;strokeColor=#000000;fillColor=#ffffff;recursiveResize=0;container=1;collapsible=0;" vertex="1" parent="1">
          <mxGeometry x="520" y="40" width="100" height="300" as="geometry" />
        </mxCell>
        <mxCell id="EwqIoR-dYyj7auGb662B-13" value="" style="html=1;points=[];perimeter=orthogonalPerimeter;" vertex="1" parent="EwqIoR-dYyj7auGb662B-12">
          <mxGeometry x="45" y="156" width="10" height="80" as="geometry" />
        </mxCell>
        <mxCell id="EwqIoR-dYyj7auGb662B-16" value="validatePassword()" style="html=1;verticalAlign=bottom;endArrow=block;" edge="1" parent="1" source="EwqIoR-dYyj7auGb662B-2" target="EwqIoR-dYyj7auGb662B-13">
          <mxGeometry width="80" relative="1" as="geometry">
            <mxPoint x="380" y="260" as="sourcePoint" />
            <mxPoint x="460" y="260" as="targetPoint" />
          </mxGeometry>
        </mxCell>
      </root>
    </mxGraphModel>
  </diagram>
</mxfile>
